<svg xmlns="http://www.w3.org/2000/svg" enable-background="new 0 0 48 48" width="48" height="48"><rect id="backgroundrect" width="100%" height="100%" x="0" y="0" fill="none" stroke="none"/><g class="currentLayer" style=""><title>Layer 1</title><path d="M44.01,31.22c-0.46-0.46-1.15-0.57-1.73-0.28c-2.6,1.29-5.36,1.95-8.22,1.95c-10.2,0-18.5-8.3-18.5-18.5   c0-2.86,0.66-5.63,1.95-8.23c0.29-0.58,0.17-1.27-0.28-1.73s-1.15-0.57-1.73-0.28C8.13,7.82,3.55,15.19,3.55,23.39   c0,11.86,9.65,21.5,21.5,21.5c8.2,0,15.57-4.57,19.24-11.94C44.58,32.37,44.46,31.68,44.01,31.22z M25.05,41.89   c-10.2,0-18.5-8.3-18.5-18.5c0-5.58,2.47-10.72,6.64-14.18c-0.42,1.69-0.64,3.42-0.64,5.18c0,11.86,9.65,21.5,21.5,21.5   c1.76,0,3.5-0.21,5.18-0.64C35.77,39.42,30.64,41.89,25.05,41.89z" id="svg_1" class="selected" fill="#ffffff" fill-opacity="1"/><path d="M21.62 11.87l-.52 3.04c-.1.56.14 1.13.6 1.47.46.33 1.07.38 1.58.11L26 15.05l2.73 1.43c.22.12.46.17.7.17.31 0 .62-.1.88-.29.46-.34.69-.9.6-1.47l-.52-3.04 2.21-2.15c.41-.4.56-1 .38-1.54-.18-.54-.65-.94-1.21-1.02l-3.05-.44-1.36-2.77C27.09 3.44 26.57 3.11 26 3.11s-1.09.32-1.35.84l-1.36 2.77-3.05.44c-.56.08-1.03.48-1.21 1.02C18.85 8.72 19 9.32 19.41 9.71L21.62 11.87zM24.5 9.57c.49-.07.91-.38 1.13-.82L26 8l.37.75c.22.44.64.75 1.13.82l.82.12-.6.58c-.35.34-.51.84-.43 1.33l.14.82-.74-.39c-.22-.12-.46-.17-.7-.17s-.48.06-.7.17l-.74.39.14-.82c.08-.49-.08-.98-.43-1.33l-.6-.58L24.5 9.57zM29.48 20.01c-.18.54-.03 1.14.38 1.54l2.21 2.15-.52 3.04c-.1.56.13 1.13.6 1.47.46.33 1.08.38 1.58.11l2.73-1.44 2.73 1.44c.22.12.46.17.7.17.31 0 .62-.1.88-.29.46-.34.69-.9.6-1.47l-.52-3.04 2.21-2.15c.41-.4.56-.99.38-1.54-.18-.54-.65-.94-1.21-1.02l-3.05-.44-1.36-2.77c-.25-.51-.77-.84-1.35-.84-.57 0-1.09.32-1.35.84l-1.36 2.77-3.05.44C30.13 19.07 29.66 19.46 29.48 20.01zM34.96 21.4c.49-.07.91-.38 1.13-.82l.37-.75.37.75c.22.44.64.75 1.13.82l.82.12-.6.58c-.35.34-.52.84-.43 1.33l.14.82-.74-.39c-.44-.23-.96-.23-1.4 0l-.74.39.14-.82c.08-.49-.08-.98-.43-1.33l-.6-.58L34.96 21.4z" id="svg_2" class="" fill="#ffffff" fill-opacity="1"/></g></svg>