<svg xmlns="http://www.w3.org/2000/svg" data-name="Layer 1" width="512" height="512"><rect id="backgroundrect" width="100%" height="100%" x="0" y="0" fill="none" stroke="none"/><g class="currentLayer" style=""><title>Layer 1</title><path fill="#ffffff" d="M256,300a55,55,0,1,0,55,55A55.06223,55.06223,0,0,0,256,300Zm0,95a40,40,0,1,1,40-40A40.04552,40.04552,0,0,1,256,395ZM193.5,187a7.50006,7.50006,0,0,0-7.5,7.5,20.5,20.5,0,0,1-41,0,7.5,7.5,0,0,0-15,0,35.5,35.5,0,0,0,71,0A7.50006,7.50006,0,0,0,193.5,187Zm181,0a7.50006,7.50006,0,0,0-7.5,7.5,20.5,20.5,0,0,1-41,0,7.5,7.5,0,0,0-15,0,35.5,35.5,0,0,0,71,0A7.50006,7.50006,0,0,0,374.5,187Zm42.01318-91.51318A227.00009,227.00009,0,0,0,95.48682,416.51367,227.00009,227.00009,0,0,0,416.51318,95.48682ZM256,468C139.103,468,44,372.89746,44,256,44,139.103,139.103,44,256,44s212,95.103,212,212C468,372.89746,372.897,468,256,468ZM222.375,139.1499h23.24414l-27.9292,22.34375A7.49994,7.49994,0,0,0,222.375,174.8501H267a7.5,7.5,0,0,0,0-15H243.75586l27.9292-22.34375A7.49994,7.49994,0,0,0,267,124.1499H222.375a7.5,7.5,0,0,0,0,15Zm71-50h23.24414l-27.9292,22.34375A7.49994,7.49994,0,0,0,293.375,124.8501H338a7.5,7.5,0,0,0,0-15H314.75586l27.9292-22.34375A7.49994,7.49994,0,0,0,338,74.1499H293.375a7.5,7.5,0,0,0,0,15Zm91-74h23.24414l-27.9292,22.34375A7.49994,7.49994,0,0,0,384.375,50.8501H429a7.5,7.5,0,0,0,0-15H405.75586l27.9292-22.34375A7.49994,7.49994,0,0,0,429,.1499H384.375a7.5,7.5,0,0,0,0,15Z" id="svg_1" class="selected" fill-opacity="1"/></g></svg>