<?xml version="1.0" standalone="no"?>
<!DOCTYPE svg PUBLIC "-//W3C//DTD SVG 20010904//EN"
 "http://www.w3.org/TR/2001/REC-SVG-20010904/DTD/svg10.dtd">
<svg version="1.0" xmlns="http://www.w3.org/2000/svg"
 width="512.000000pt" height="512.000000pt" viewBox="0 0 512.000000 512.000000"
 preserveAspectRatio="xMidYMid meet">

<g transform="translate(0.000000,512.000000) scale(0.100000,-0.100000)"
fill="#000000" stroke="none">
<path d="M1959 5107 c-63 -24 -97 -56 -130 -122 -30 -62 -31 -68 -27 -162 6
-124 21 -164 143 -368 52 -88 95 -163 95 -167 0 -5 -17 -5 -38 -2 -53 8 -279
-13 -385 -37 -48 -10 -149 -42 -224 -70 -118 -43 -146 -50 -209 -50 -97 0
-150 24 -224 101 -51 54 -62 60 -97 60 -51 0 -90 -30 -99 -74 -12 -68 98 -293
218 -441 l66 -83 -91 -81 c-212 -186 -373 -399 -497 -656 -130 -268 -186 -491
-196 -785 -30 -799 438 -1541 1211 -1920 228 -112 466 -185 742 -227 150 -23
536 -23 686 0 525 81 961 289 1329 635 148 140 324 379 416 565 347 699 260
1503 -229 2117 -89 112 -242 266 -339 341 -38 30 -69 57 -70 60 0 4 27 36 59
72 76 84 132 167 181 269 47 97 50 134 14 177 -22 26 -33 31 -71 31 -42 0 -48
-4 -99 -59 -68 -74 -130 -102 -219 -102 -73 0 -116 10 -223 53 -206 82 -468
119 -690 97 -70 -7 -145 -13 -166 -13 l-39 -1 -52 115 c-161 355 -358 621
-517 699 -78 39 -170 50 -229 28z m134 -201 c38 -16 118 -93 181 -174 94 -123
200 -314 286 -516 61 -144 70 -151 198 -151 53 1 151 6 217 12 135 13 298 4
417 -23 40 -9 134 -39 208 -66 107 -40 152 -52 219 -57 l85 -6 -59 -52 c-66
-59 -210 -135 -300 -159 -33 -9 -115 -18 -181 -21 -107 -5 -138 -2 -258 22
-153 31 -184 27 -211 -26 -32 -62 -19 -89 114 -233 51 -54 106 -119 123 -143
32 -47 112 -212 106 -218 -2 -2 -31 4 -63 14 -33 10 -112 24 -175 30 -106 10
-122 14 -216 61 -112 54 -149 89 -159 149 -13 78 -100 117 -158 71 -16 -13
-32 -41 -41 -74 -13 -45 -27 -64 -75 -108 -81 -72 -204 -145 -314 -185 -51
-18 -118 -46 -149 -62 -37 -18 -58 -24 -58 -16 0 31 117 238 183 322 158 204
157 203 157 245 0 28 -7 46 -24 63 -34 34 -68 40 -139 22 -257 -64 -486 -34
-672 88 -57 38 -215 187 -215 203 0 4 33 8 74 9 87 2 126 11 266 63 149 56
248 79 383 90 124 10 283 4 304 -12 6 -5 37 -70 69 -144 68 -158 89 -184 149
-184 36 0 48 5 69 31 16 19 26 43 26 63 0 71 -201 490 -363 756 -76 124 -97
178 -97 247 0 80 25 98 93 69z m1882 -1397 c84 -69 232 -220 302 -309 425
-544 501 -1270 196 -1874 -299 -595 -883 -997 -1597 -1103 -151 -22 -481 -22
-632 0 -714 106 -1298 508 -1597 1103 -201 398 -240 853 -111 1282 86 283 227
522 441 743 62 64 139 136 171 162 l59 46 54 -33 c139 -83 335 -135 506 -136
l63 0 -56 -85 c-108 -165 -169 -334 -194 -536 -11 -95 -6 -124 31 -158 15 -14
36 -21 61 -21 35 0 48 8 133 90 103 98 166 139 265 171 132 44 347 167 414
238 17 17 34 31 39 31 5 0 30 -15 56 -34 103 -75 243 -130 356 -140 190 -18
255 -41 350 -128 49 -45 64 -53 97 -53 33 0 46 7 70 34 30 34 30 35 24 119
-15 176 -84 372 -181 508 l-46 64 89 0 c152 0 323 39 447 103 l50 25 35 -26
c19 -14 67 -51 105 -83z"/>
<path d="M735 2176 c-35 -35 -39 -65 -26 -200 20 -216 62 -368 155 -562 168
-350 455 -631 829 -813 254 -122 526 -189 794 -194 105 -2 113 -1 137 22 51
48 40 136 -21 159 -15 6 -93 15 -173 21 -222 18 -383 56 -580 139 -221 94
-436 248 -583 417 -221 255 -340 537 -363 860 -10 141 -31 175 -109 175 -25 0
-43 -8 -60 -24z"/>
<path d="M2907 615 c-64 -65 -23 -165 68 -165 86 0 127 100 66 161 -39 39 -97
40 -134 4z"/>
</g>
</svg>
