<?xml version="1.0" standalone="no"?>
<!DOCTYPE svg PUBLIC "-//W3C//DTD SVG 20010904//EN"
 "http://www.w3.org/TR/2001/REC-SVG-20010904/DTD/svg10.dtd">
<svg version="1.0" xmlns="http://www.w3.org/2000/svg"
 width="700.000000pt" height="700.000000pt" viewBox="0 0 700.000000 700.000000"
 preserveAspectRatio="xMidYMid meet">
<metadata>
Created by potrace 1.14, written by Peter Selinger 2001-2017
</metadata>
<g transform="translate(0.000000,700.000000) scale(0.100000,-0.100000)"
fill="#000000" stroke="none">
<path d="M2705 6991 c-88 -22 -155 -80 -207 -181 -31 -61 -33 -71 -33 -165 1
-120 8 -185 29 -243 18 -49 93 -199 112 -222 6 -8 24 -37 39 -65 14 -27 39
-70 54 -95 15 -25 42 -71 60 -103 l33 -57 -89 0 c-90 0 -200 -6 -263 -15 -19
-3 -55 -7 -80 -10 -46 -6 -75 -11 -120 -20 -14 -3 -38 -8 -55 -11 -16 -3 -122
-36 -235 -74 -226 -77 -257 -84 -346 -83 -118 2 -201 42 -299 143 -61 64 -89
79 -139 73 -72 -7 -113 -45 -120 -108 -11 -104 142 -401 327 -634 l58 -74 -28
-24 c-153 -131 -321 -300 -426 -428 -288 -351 -526 -874 -586 -1290 -35 -236
-42 -568 -16 -730 2 -16 7 -52 10 -80 37 -300 181 -709 348 -985 161 -267 412
-564 624 -738 34 -28 68 -55 75 -62 124 -106 365 -258 573 -363 204 -102 539
-222 705 -253 14 -2 32 -7 40 -10 14 -5 128 -27 200 -39 19 -3 42 -8 50 -10
19 -5 127 -16 200 -21 86 -5 517 -5 600 1 106 7 150 12 275 35 118 21 118 20
215 45 36 8 72 17 81 20 17 4 156 43 177 50 7 3 13 4 15 5 9 0 188 68 266 102
276 117 597 313 806 492 184 158 283 263 448 476 124 159 249 373 344 590 63
141 139 392 168 548 3 15 7 38 10 51 2 13 7 49 11 80 3 31 8 64 10 74 20 107
20 445 0 592 -3 17 -7 53 -10 80 -9 78 -44 240 -77 354 -128 447 -364 843
-714 1196 -127 129 -161 159 -277 254 -32 25 -58 51 -58 57 0 5 36 53 81 105
104 121 176 230 237 356 69 145 67 221 -5 270 -25 17 -41 19 -108 14 -12 0
-56 -35 -100 -77 -89 -85 -148 -120 -227 -131 -105 -16 -191 -2 -356 59 -128
47 -270 89 -352 103 -113 20 -152 26 -210 33 -87 9 -355 9 -455 -1 -44 -5
-112 -10 -151 -13 l-71 -4 -48 103 c-92 196 -166 340 -241 464 -42 69 -80 131
-85 137 -5 6 -41 54 -81 106 -135 177 -268 290 -395 331 -62 21 -172 31 -218
20z m176 -297 c34 -17 165 -145 214 -208 127 -164 273 -424 400 -711 73 -167
96 -197 158 -211 26 -7 210 -5 287 2 107 9 476 12 530 4 107 -16 135 -21 175
-32 22 -5 47 -12 55 -13 15 -3 113 -36 300 -100 125 -43 172 -52 290 -55 l45
-1 -50 -46 c-60 -56 -175 -132 -253 -169 -31 -14 -75 -35 -96 -45 -77 -37
-244 -60 -426 -60 -72 -1 -149 9 -290 36 -14 2 -46 8 -71 13 -25 5 -67 8 -94
6 -41 -2 -54 -7 -77 -33 -29 -32 -44 -86 -34 -125 6 -26 72 -116 133 -182 192
-210 205 -228 282 -380 64 -127 74 -161 44 -149 -21 7 -122 31 -173 40 -35 6
-45 8 -155 20 -125 13 -154 23 -292 95 -135 69 -179 111 -190 181 -19 121
-170 176 -237 86 -13 -18 -31 -57 -41 -87 -14 -45 -31 -68 -89 -126 -68 -66
-270 -204 -299 -204 -7 0 -18 -5 -24 -11 -9 -9 -152 -72 -181 -79 -17 -5 -61
-23 -118 -50 -82 -38 -100 -41 -96 -15 3 17 83 171 132 254 37 61 81 125 181
256 129 169 152 211 146 260 -12 90 -91 134 -197 110 -14 -3 -36 -8 -50 -11
-14 -3 -43 -9 -65 -14 -326 -71 -681 8 -908 203 -96 82 -220 207 -213 214 2 3
35 7 73 9 162 10 202 19 404 93 136 49 304 95 388 105 156 20 338 25 458 12
81 -8 81 -8 137 -136 58 -131 110 -236 135 -272 43 -63 144 -75 189 -23 57 66
58 102 4 236 -98 245 -262 568 -457 899 -106 181 -135 259 -128 353 7 99 42
114 144 61z m2407 -1781 c54 -40 61 -46 80 -63 9 -9 35 -29 57 -45 59 -43 310
-297 391 -395 160 -192 321 -475 405 -712 38 -106 92 -299 104 -371 3 -18 10
-57 15 -87 34 -196 33 -523 -1 -725 -6 -33 -12 -69 -13 -80 -19 -109 -92 -355
-141 -470 -35 -81 -133 -273 -169 -328 -20 -32 -36 -60 -36 -62 0 -13 -147
-208 -229 -305 -70 -81 -197 -208 -282 -280 -35 -30 -66 -57 -69 -60 -22 -23
-212 -155 -298 -207 -87 -53 -325 -175 -417 -213 -106 -45 -393 -135 -490
-154 -11 -3 -54 -11 -95 -20 -193 -40 -311 -50 -605 -50 -198 0 -355 7 -410
18 -11 2 -42 7 -70 10 -56 8 -242 48 -325 72 -30 8 -63 17 -73 19 -9 2 -21 6
-25 9 -5 3 -19 7 -33 10 -60 12 -287 103 -424 171 -591 291 -1038 745 -1295
1315 -64 143 -129 339 -155 467 -39 192 -49 299 -49 508 1 167 10 292 28 383
3 15 8 43 11 62 3 19 13 62 22 95 8 33 17 70 19 82 12 64 104 305 164 428 61
126 212 369 272 436 13 15 46 54 73 88 75 91 311 320 391 380 l32 23 93 -50
c110 -59 174 -85 284 -117 158 -46 211 -53 462 -64 6 -1 -14 -40 -46 -88 -172
-260 -266 -529 -286 -823 -9 -118 53 -191 148 -176 44 7 62 20 185 137 109
103 198 161 313 204 253 97 511 244 608 349 14 14 32 26 40 26 9 0 50 -23 91
-50 116 -78 266 -145 369 -165 12 -2 30 -7 39 -9 9 -3 42 -8 72 -10 123 -11
152 -16 241 -40 80 -22 124 -47 220 -126 87 -72 118 -86 173 -76 34 7 80 50
95 89 24 62 -28 372 -84 502 -7 17 -25 59 -40 95 -33 76 -103 198 -146 251
-16 20 -29 39 -29 41 0 3 64 8 143 11 150 7 173 10 277 33 102 22 198 55 280
96 41 20 81 37 88 37 7 1 30 -11 50 -26z"/>
<path d="M1029 2992 c-62 -42 -70 -69 -64 -210 2 -64 6 -126 9 -137 2 -11 7
-45 10 -75 40 -327 195 -698 420 -1005 74 -102 191 -232 280 -314 22 -20 47
-43 56 -51 81 -76 304 -234 424 -300 250 -138 504 -234 766 -289 117 -25 186
-35 320 -47 100 -9 269 -10 301 -1 41 11 79 74 79 131 0 41 -5 53 -34 82 -19
19 -42 34 -53 35 -25 1 -59 5 -121 13 -29 4 -76 9 -105 11 -71 4 -146 13 -247
31 -131 22 -142 24 -185 36 -22 7 -42 12 -45 13 -93 19 -327 112 -465 184
-501 259 -869 678 -1043 1186 -21 60 -51 170 -58 213 -2 12 -8 49 -14 82 -12
65 -17 113 -24 206 -10 120 -36 194 -74 209 -38 15 -109 14 -133 -3z"/>
<path d="M4026 869 c-56 -16 -98 -77 -94 -139 2 -29 40 -85 68 -100 35 -19 97
-19 129 1 133 81 47 280 -103 238z"/>
</g>
</svg>
