<?xml version="1.0" standalone="no"?>
<!DOCTYPE svg PUBLIC "-//W3C//DTD SVG 20010904//EN"
 "http://www.w3.org/TR/2001/REC-SVG-20010904/DTD/svg10.dtd">
<svg version="1.0" xmlns="http://www.w3.org/2000/svg"
 width="512.000000pt" height="512.000000pt" viewBox="0 0 512.000000 512.000000"
 preserveAspectRatio="xMidYMid meet">

<g transform="translate(0.000000,512.000000) scale(0.100000,-0.100000)"
fill="#000000" stroke="none">
<path d="M522 5105 c-182 -40 -360 -180 -440 -346 -53 -110 -77 -226 -68 -331
18 -215 136 -407 316 -512 376 -221 853 -26 966 395 22 84 23 234 0 318 -88
339 -432 550 -774 476z m267 -110 c204 -49 363 -214 407 -425 71 -336 -224
-664 -571 -636 -131 10 -234 57 -335 152 -310 293 -168 807 250 909 74 18 171
18 249 0z"/>
<path d="M627 4832 c-15 -16 -17 -45 -17 -200 l0 -181 80 -95 c44 -52 85 -98
90 -101 20 -12 60 5 72 30 13 29 6 40 -76 138 l-56 66 0 158 c0 127 -3 163
-16 181 -18 27 -55 29 -77 4z"/>
<path d="M4522 5045 l-173 -63 -24 24 -24 24 -396 0 -396 0 -24 -25 -25 -24 0
-356 0 -355 -29 0 c-16 0 -37 -7 -45 -16 -23 -22 -20 -71 3 -84 13 -7 298 -10
855 -10 l835 0 15 22 c21 30 20 44 -4 68 -16 16 -34 20 -82 21 -57 1 -60 2
-37 12 38 17 59 37 59 56 0 23 -257 719 -276 749 -8 12 -24 22 -37 21 -12 0
-100 -29 -195 -64z m271 -358 c59 -162 107 -298 107 -303 0 -9 -223 -95 -245
-94 -9 0 -225 572 -225 595 0 11 210 93 240 94 11 0 46 -83 123 -292z m-943
-92 l0 -325 -140 0 -140 0 0 318 c0 175 3 322 7 325 3 4 66 7 140 7 l133 0 0
-325z m380 0 l0 -325 -135 0 -135 0 0 325 0 325 135 0 135 0 0 -325z m214 -73
c47 -128 86 -237 86 -242 0 -6 -41 -10 -95 -10 l-95 0 0 258 c0 147 4 251 9
242 5 -8 47 -120 95 -248z"/>
<path d="M2388 4369 c-172 -25 -344 -101 -450 -198 -72 -67 -146 -169 -180
-250 -16 -40 -26 -51 -43 -51 -64 0 -129 -39 -556 -335 -244 -169 -458 -320
-474 -336 -141 -133 -164 -391 -48 -548 16 -22 254 -251 528 -510 275 -259
501 -480 503 -491 3 -18 -2 -20 -47 -20 -96 0 -149 -18 -201 -69 -83 -80 -83
-41 -9 -782 36 -357 63 -652 60 -654 -2 -3 -161 -5 -352 -5 l-349 0 -16 -25
c-24 -36 -6 -72 38 -80 18 -3 919 -4 2001 -3 1935 3 1969 3 1983 22 16 23 18
45 4 66 -8 13 -201 16 -1602 20 l-1593 5 -64 650 c-72 724 -72 692 -1 727 33
17 103 18 1038 18 1080 0 1049 1 1086 -51 23 -33 21 -62 -29 -554 -25 -242
-45 -452 -45 -467 0 -54 66 -80 93 -35 14 21 108 906 107 1005 0 89 -78 181
-169 201 -29 6 -77 11 -107 11 -47 0 -55 3 -52 17 2 10 233 235 513 499 491
464 511 484 549 558 35 66 40 86 44 161 7 136 -32 246 -117 328 -71 68 -898
638 -956 659 -27 9 -61 17 -75 18 -20 0 -35 14 -68 64 -61 93 -151 158 -239
172 -36 5 -40 10 -56 55 -44 123 -131 184 -290 205 -112 15 -270 16 -359 3z
m341 -109 c97 -13 126 -25 169 -75 31 -35 35 -43 50 -120 9 -44 13 -47 115
-66 159 -30 254 -191 264 -450 10 -229 -40 -383 -139 -435 -15 -8 -29 -14 -33
-14 -3 0 -5 92 -5 203 0 240 4 231 -110 240 -158 13 -291 78 -421 205 -48 46
-92 88 -99 92 -23 14 -51 -2 -77 -44 -96 -155 -249 -256 -386 -256 -76 0 -77
-5 -77 -242 l0 -209 -22 7 c-133 41 -197 230 -169 495 29 265 125 444 299 557
158 102 392 143 641 112z m-1040 -582 c-7 -40 -13 -130 -13 -199 l-1 -127 -34
-22 c-18 -12 -37 -18 -41 -13 -8 9 -131 178 -168 229 l-21 31 106 74 c101 71
173 112 181 104 2 -2 -2 -37 -9 -77z m1889 -15 c67 -46 122 -86 122 -88 0 -6
-168 -236 -184 -252 -9 -10 -19 -8 -46 11 l-34 23 3 119 c2 104 -7 206 -26
267 -9 31 31 12 165 -80z m-1037 1 c44 -47 143 -116 222 -155 66 -32 141 -54
255 -75 l22 -4 0 -243 c0 -260 -5 -299 -55 -397 -33 -65 -103 -139 -171 -180
-272 -164 -629 -20 -709 285 -20 78 -22 534 -2 539 6 2 35 9 62 15 116 27 227
99 301 194 20 26 40 47 44 47 3 0 17 -12 31 -26z m-1126 -279 c50 -69 91 -129
92 -133 1 -4 -99 -72 -223 -151 -219 -140 -249 -166 -235 -202 3 -8 144 -147
314 -308 l307 -292 0 -242 0 -241 -32 30 c-18 17 -230 217 -471 444 -504 475
-492 460 -492 605 0 104 21 160 83 220 35 33 549 395 561 395 3 0 47 -57 96
-125z m2633 -47 c136 -94 265 -186 287 -203 62 -50 98 -124 103 -215 5 -88 -7
-142 -45 -197 -25 -36 -935 -903 -948 -903 -3 0 -5 107 -5 238 l0 239 310 294
c173 163 313 304 317 317 8 31 -10 48 -135 128 -59 38 -158 101 -220 141
l-112 73 53 72 c29 40 72 99 96 131 23 31 44 57 46 57 3 0 117 -77 253 -172z
m-2324 -153 c13 -30 46 -77 71 -104 45 -48 131 -101 165 -101 13 0 20 -17 29
-70 19 -103 77 -214 155 -298 l66 -69 0 -82 0 -81 -233 0 -232 0 -274 259
c-150 142 -274 262 -274 267 0 6 478 326 500 333 1 1 13 -24 27 -54z m1954
-115 c133 -85 242 -158 242 -161 0 -3 -123 -124 -274 -268 l-275 -261 -235 0
-236 0 0 74 0 74 78 78 c92 93 137 176 161 299 l16 82 49 17 c67 24 140 95
177 173 21 45 34 61 43 56 7 -5 122 -78 254 -163z m-1288 -611 c36 -11 99 -22
140 -25 70 -6 93 -2 249 33 l24 6 -5 -119 c-6 -129 -18 -168 -64 -223 -35 -42
-116 -81 -170 -81 -60 0 -127 27 -168 66 -62 61 -70 84 -74 232 -2 72 -2 132
0 132 1 0 32 -9 68 -21z m-175 -229 c10 -61 61 -154 107 -195 94 -85 216 -113
339 -75 63 19 81 30 134 83 63 63 105 145 105 203 l0 24 218 -2 217 -3 3 -317
2 -318 -780 0 -780 0 0 320 0 320 214 0 214 0 7 -40z"/>
<path d="M2465 1103 c-256 -92 -272 -444 -26 -556 71 -33 179 -30 253 6 107
53 163 144 163 267 0 85 -21 142 -74 203 -71 81 -213 117 -316 80z m156 -104
c19 -7 49 -26 68 -43 80 -74 83 -185 8 -265 -95 -100 -250 -72 -308 54 -68
146 78 305 232 254z"/>
<path d="M439 122 c-47 -39 -16 -122 46 -122 37 0 68 32 68 70 0 60 -66 90
-114 52z"/>
</g>
</svg>
